<?xml version="1.0" encoding="UTF-8" standalone="no"?><svg xmlns="http://www.w3.org/2000/svg" xmlns:xlink="http://www.w3.org/1999/xlink" style="isolation:isolate" viewBox="0 0 512 512" width="512pt" height="512pt"><defs><clipPath id="_clipPath_7fyhrLXWdWV77ZeOxOZ5s3P71UIXjKQ0"><rect width="512" height="512"/></clipPath></defs><g clip-path="url(#_clipPath_7fyhrLXWdWV77ZeOxOZ5s3P71UIXjKQ0)"><g><path d=" M 74.183 323.429 Q 118.636 322.571 408.486 323.429 C 424.045 323.766 423.63 353.455 408.486 353.143 L 408.486 442.286 C 423.216 442.281 423.63 471.731 408.486 472 Q 118.22 471.978 74.183 472 C 30.147 472.022 29.731 324.288 74.183 323.429 Z " fill="rgb(101,176,69)"/><path d=" M 87.041 353.143 C 55.218 354.258 55.218 442.657 87.041 442.286 Q 118.864 441.914 408.486 442.286 L 408.486 353.143 Q 118.864 352.029 87.041 353.143 Z " fill="rgb(26,135,99)"/></g><g><path d=" M 447.868 196.556 C 402.998 196.503 198.219 196.274 181.101 196.556 C 163.982 196.837 163.288 218.887 181.101 219.023 L 181.101 286.425 C 165.615 287.035 166.885 309.078 181.101 308.892 Q 401.723 309.108 447.868 308.892 C 494.013 308.677 492.737 196.608 447.868 196.556 Z " fill="rgb(221,75,57)"/><path d=" M 448.478 219.023 L 181.101 219.023 L 181.101 286.425 L 447.868 286.425 C 467.228 285.983 467.228 219.301 448.478 219.023 Z " fill="rgb(189,29,29)"/></g><g><path d=" M 125.032 185.002 L 383.712 183.419 C 389.006 183.626 392.411 180.475 393.885 173.919 L 393.885 75.755 L 482.534 75.755 C 496.257 75.094 496.054 52.998 482.534 52.006 L 30.571 52.006 C 15.83 51.574 15.127 75.303 30.571 75.755 L 39.29 75.755 L 39.29 180.252 L 62.542 180.252 L 62.542 75.755 L 116.313 75.755 L 116.313 173.919 C 116.26 179.586 119.181 183.296 125.032 185.002 Z " fill="rgb(66,127,237)"/><ellipse vector-effect="non-scaling-stroke" cx="50.91616027553073" cy="199.25070276309035" rx="21.79886986649946" ry="23.749297236909655" fill="rgb(66,127,237)"/></g></g></svg>
