<?xml version="1.0" encoding="UTF-8" standalone="no"?><svg xmlns="http://www.w3.org/2000/svg" xmlns:xlink="http://www.w3.org/1999/xlink" style="isolation:isolate" viewBox="0 0 1920 600" width="1920pt" height="600pt"><defs><clipPath id="_clipPath_uTHFKtt92zmWDdeLb5voTBP4htOPSCIx"><rect width="1920" height="600"/></clipPath></defs><g clip-path="url(#_clipPath_uTHFKtt92zmWDdeLb5voTBP4htOPSCIx)"><linearGradient id="_lgradient_0" x1="0" y1="0.5" x2="1" y2="0.5"><stop offset="2.5%" style="stop-color:#4E43EA"/><stop offset="99.16666666666667%" style="stop-color:#932AD9"/></linearGradient><rect width="1920" height="600" style="fill:url(#_lgradient_0);"/><linearGradient id="_lgradient_1" x1="0" y1="0.5" x2="1" y2="0.5" gradientTransform="matrix(1921,0,0,471.997,0,56)" gradientUnits="userSpaceOnUse"><stop offset="0%" stop-opacity="1" style="stop-color:rgb(13,13,191)"/><stop offset="97.5%" stop-opacity="1" style="stop-color:rgb(59,36,210)"/></linearGradient><path d=" M 0 264 C 119.583 262.41 164 290 294 372 C 424 454 522 568 722 514 C 922 460 1497.5 155.5 1920.5 157.5 L 1921 62 L 0 56 L 0 264 Z " fill="url(#_lgradient_1)"/><linearGradient id="_lgradient_2" x1="0" y1="0.5" x2="1" y2="0.5" gradientTransform="matrix(1922.5,0,0,443.132,0,-82)" gradientUnits="userSpaceOnUse"><stop offset="0%" stop-opacity="1" style="stop-color:rgb(47,87,221)"/><stop offset="97.91666666666666%" stop-opacity="1" style="stop-color:rgb(29,6,183)"/></linearGradient><path d=" M 0 82 C 0 80 188.445 125.407 277 177 C 365.555 228.593 516 392 648 356 C 780 320 1559.404 50.692 1921 97.5 L 1922.5 -76.5 L 0 -82 Q 0 84 0 82 Z " fill="url(#_lgradient_2)"/></g></svg>
